<mxfile host="app.diagrams.net" modified="2021-01-20T13:02:01.863Z" agent="5.0 (X11; Linux x86_64) AppleWebKit/537.36 (KHTML, like Gecko) Chrome/87.0.4280.88 Safari/537.36" etag="V4d9Dg4xoNW1OmXblc_C" version="14.1.9" type="github">
  <diagram id="TolQbtX0Lrptn47H0OuC" name="Page-1">
    <mxGraphModel dx="1515" dy="740" grid="1" gridSize="10" guides="1" tooltips="1" connect="1" arrows="1" fold="1" page="1" pageScale="1" pageWidth="850" pageHeight="1100" math="0" shadow="0">
      <root>
        <mxCell id="0" />
        <mxCell id="1" parent="0" />
        <mxCell id="XnLmmPZK05LFaPmKAXAn-1" value="" style="whiteSpace=wrap;html=1;aspect=fixed;strokeWidth=16;fillColor=#d5e8d4;strokeColor=#FF3333;" vertex="1" parent="1">
          <mxGeometry x="347" y="330" width="120" height="120" as="geometry" />
        </mxCell>
        <mxCell id="XnLmmPZK05LFaPmKAXAn-3" value="" style="whiteSpace=wrap;html=1;aspect=fixed;" vertex="1" parent="1">
          <mxGeometry x="466" y="330" width="120" height="120" as="geometry" />
        </mxCell>
        <mxCell id="XnLmmPZK05LFaPmKAXAn-4" value="" style="whiteSpace=wrap;html=1;aspect=fixed;" vertex="1" parent="1">
          <mxGeometry x="227" y="330" width="120" height="120" as="geometry" />
        </mxCell>
        <mxCell id="XnLmmPZK05LFaPmKAXAn-5" value="" style="whiteSpace=wrap;html=1;aspect=fixed;" vertex="1" parent="1">
          <mxGeometry x="347" y="210" width="120" height="120" as="geometry" />
        </mxCell>
        <mxCell id="XnLmmPZK05LFaPmKAXAn-6" value="" style="whiteSpace=wrap;html=1;aspect=fixed;" vertex="1" parent="1">
          <mxGeometry x="466" y="210" width="120" height="120" as="geometry" />
        </mxCell>
        <mxCell id="XnLmmPZK05LFaPmKAXAn-7" value="" style="whiteSpace=wrap;html=1;aspect=fixed;" vertex="1" parent="1">
          <mxGeometry x="227" y="210" width="120" height="120" as="geometry" />
        </mxCell>
        <mxCell id="XnLmmPZK05LFaPmKAXAn-8" value="" style="whiteSpace=wrap;html=1;aspect=fixed;" vertex="1" parent="1">
          <mxGeometry x="347" y="449" width="120" height="120" as="geometry" />
        </mxCell>
        <mxCell id="XnLmmPZK05LFaPmKAXAn-9" value="" style="whiteSpace=wrap;html=1;aspect=fixed;" vertex="1" parent="1">
          <mxGeometry x="466" y="449" width="120" height="120" as="geometry" />
        </mxCell>
        <mxCell id="XnLmmPZK05LFaPmKAXAn-10" value="" style="whiteSpace=wrap;html=1;aspect=fixed;" vertex="1" parent="1">
          <mxGeometry x="227" y="449" width="120" height="120" as="geometry" />
        </mxCell>
        <mxCell id="XnLmmPZK05LFaPmKAXAn-11" value="" style="ellipse;whiteSpace=wrap;html=1;aspect=fixed;fillColor=#60a917;strokeColor=#2D7600;fontColor=#ffffff;" vertex="1" parent="1">
          <mxGeometry x="365" y="344" width="22" height="22" as="geometry" />
        </mxCell>
        <mxCell id="XnLmmPZK05LFaPmKAXAn-12" value="" style="ellipse;whiteSpace=wrap;html=1;aspect=fixed;fillColor=#60a917;strokeColor=#2D7600;fontColor=#ffffff;" vertex="1" parent="1">
          <mxGeometry x="423" y="399" width="22" height="22" as="geometry" />
        </mxCell>
        <mxCell id="XnLmmPZK05LFaPmKAXAn-13" value="" style="ellipse;whiteSpace=wrap;html=1;aspect=fixed;fillColor=#e3c800;strokeColor=#B09500;fontColor=#ffffff;" vertex="1" parent="1">
          <mxGeometry x="365" y="399" width="22" height="22" as="geometry" />
        </mxCell>
        <mxCell id="XnLmmPZK05LFaPmKAXAn-14" value="" style="ellipse;whiteSpace=wrap;html=1;aspect=fixed;fillColor=#e3c800;strokeColor=#B09500;fontColor=#ffffff;" vertex="1" parent="1">
          <mxGeometry x="422" y="344" width="22" height="22" as="geometry" />
        </mxCell>
        <mxCell id="XnLmmPZK05LFaPmKAXAn-15" value="" style="ellipse;whiteSpace=wrap;html=1;aspect=fixed;fillColor=#f8cecc;strokeColor=#b85450;" vertex="1" parent="1">
          <mxGeometry x="392" y="369" width="22" height="22" as="geometry" />
        </mxCell>
        <mxCell id="XnLmmPZK05LFaPmKAXAn-16" value="" style="ellipse;whiteSpace=wrap;html=1;aspect=fixed;fillColor=#60a917;strokeColor=#2D7600;fontColor=#ffffff;" vertex="1" parent="1">
          <mxGeometry x="487" y="346" width="22" height="22" as="geometry" />
        </mxCell>
        <mxCell id="XnLmmPZK05LFaPmKAXAn-17" value="" style="ellipse;whiteSpace=wrap;html=1;aspect=fixed;fillColor=#60a917;strokeColor=#2D7600;fontColor=#ffffff;" vertex="1" parent="1">
          <mxGeometry x="545" y="401" width="22" height="22" as="geometry" />
        </mxCell>
        <mxCell id="XnLmmPZK05LFaPmKAXAn-18" value="" style="ellipse;whiteSpace=wrap;html=1;aspect=fixed;fillColor=#e3c800;strokeColor=#B09500;fontColor=#ffffff;" vertex="1" parent="1">
          <mxGeometry x="487" y="401" width="22" height="22" as="geometry" />
        </mxCell>
        <mxCell id="XnLmmPZK05LFaPmKAXAn-19" value="" style="ellipse;whiteSpace=wrap;html=1;aspect=fixed;fillColor=#e3c800;strokeColor=#B09500;fontColor=#ffffff;" vertex="1" parent="1">
          <mxGeometry x="544" y="346" width="22" height="22" as="geometry" />
        </mxCell>
        <mxCell id="XnLmmPZK05LFaPmKAXAn-20" value="" style="ellipse;whiteSpace=wrap;html=1;aspect=fixed;fillColor=#f8cecc;strokeColor=#b85450;" vertex="1" parent="1">
          <mxGeometry x="514" y="371" width="22" height="22" as="geometry" />
        </mxCell>
        <mxCell id="XnLmmPZK05LFaPmKAXAn-21" value="" style="ellipse;whiteSpace=wrap;html=1;aspect=fixed;fillColor=#60a917;strokeColor=#2D7600;fontColor=#ffffff;" vertex="1" parent="1">
          <mxGeometry x="250" y="345" width="22" height="22" as="geometry" />
        </mxCell>
        <mxCell id="XnLmmPZK05LFaPmKAXAn-22" value="" style="ellipse;whiteSpace=wrap;html=1;aspect=fixed;fillColor=#60a917;strokeColor=#2D7600;fontColor=#ffffff;" vertex="1" parent="1">
          <mxGeometry x="308" y="400" width="22" height="22" as="geometry" />
        </mxCell>
        <mxCell id="XnLmmPZK05LFaPmKAXAn-23" value="" style="ellipse;whiteSpace=wrap;html=1;aspect=fixed;fillColor=#e3c800;strokeColor=#B09500;fontColor=#ffffff;" vertex="1" parent="1">
          <mxGeometry x="250" y="400" width="22" height="22" as="geometry" />
        </mxCell>
        <mxCell id="XnLmmPZK05LFaPmKAXAn-24" value="" style="ellipse;whiteSpace=wrap;html=1;aspect=fixed;fillColor=#e3c800;strokeColor=#B09500;fontColor=#ffffff;" vertex="1" parent="1">
          <mxGeometry x="307" y="345" width="22" height="22" as="geometry" />
        </mxCell>
        <mxCell id="XnLmmPZK05LFaPmKAXAn-25" value="" style="ellipse;whiteSpace=wrap;html=1;aspect=fixed;fillColor=#f8cecc;strokeColor=#b85450;" vertex="1" parent="1">
          <mxGeometry x="277" y="370" width="22" height="22" as="geometry" />
        </mxCell>
        <mxCell id="XnLmmPZK05LFaPmKAXAn-26" value="" style="ellipse;whiteSpace=wrap;html=1;aspect=fixed;fillColor=#60a917;strokeColor=#2D7600;fontColor=#ffffff;" vertex="1" parent="1">
          <mxGeometry x="366" y="230" width="22" height="22" as="geometry" />
        </mxCell>
        <mxCell id="XnLmmPZK05LFaPmKAXAn-27" value="" style="ellipse;whiteSpace=wrap;html=1;aspect=fixed;fillColor=#60a917;strokeColor=#2D7600;fontColor=#ffffff;" vertex="1" parent="1">
          <mxGeometry x="424" y="285" width="22" height="22" as="geometry" />
        </mxCell>
        <mxCell id="XnLmmPZK05LFaPmKAXAn-28" value="" style="ellipse;whiteSpace=wrap;html=1;aspect=fixed;fillColor=#e3c800;strokeColor=#B09500;fontColor=#ffffff;" vertex="1" parent="1">
          <mxGeometry x="366" y="285" width="22" height="22" as="geometry" />
        </mxCell>
        <mxCell id="XnLmmPZK05LFaPmKAXAn-29" value="" style="ellipse;whiteSpace=wrap;html=1;aspect=fixed;fillColor=#e3c800;strokeColor=#B09500;fontColor=#ffffff;" vertex="1" parent="1">
          <mxGeometry x="423" y="230" width="22" height="22" as="geometry" />
        </mxCell>
        <mxCell id="XnLmmPZK05LFaPmKAXAn-30" value="" style="ellipse;whiteSpace=wrap;html=1;aspect=fixed;fillColor=#f8cecc;strokeColor=#b85450;" vertex="1" parent="1">
          <mxGeometry x="393" y="255" width="22" height="22" as="geometry" />
        </mxCell>
        <mxCell id="XnLmmPZK05LFaPmKAXAn-31" value="" style="ellipse;whiteSpace=wrap;html=1;aspect=fixed;fillColor=#60a917;strokeColor=#2D7600;fontColor=#ffffff;" vertex="1" parent="1">
          <mxGeometry x="488" y="232" width="22" height="22" as="geometry" />
        </mxCell>
        <mxCell id="XnLmmPZK05LFaPmKAXAn-32" value="" style="ellipse;whiteSpace=wrap;html=1;aspect=fixed;fillColor=#60a917;strokeColor=#2D7600;fontColor=#ffffff;" vertex="1" parent="1">
          <mxGeometry x="546" y="287" width="22" height="22" as="geometry" />
        </mxCell>
        <mxCell id="XnLmmPZK05LFaPmKAXAn-33" value="" style="ellipse;whiteSpace=wrap;html=1;aspect=fixed;fillColor=#e3c800;strokeColor=#B09500;fontColor=#ffffff;" vertex="1" parent="1">
          <mxGeometry x="488" y="287" width="22" height="22" as="geometry" />
        </mxCell>
        <mxCell id="XnLmmPZK05LFaPmKAXAn-34" value="" style="ellipse;whiteSpace=wrap;html=1;aspect=fixed;fillColor=#e3c800;strokeColor=#B09500;fontColor=#ffffff;" vertex="1" parent="1">
          <mxGeometry x="545" y="232" width="22" height="22" as="geometry" />
        </mxCell>
        <mxCell id="XnLmmPZK05LFaPmKAXAn-35" value="" style="ellipse;whiteSpace=wrap;html=1;aspect=fixed;fillColor=#f8cecc;strokeColor=#b85450;" vertex="1" parent="1">
          <mxGeometry x="515" y="257" width="22" height="22" as="geometry" />
        </mxCell>
        <mxCell id="XnLmmPZK05LFaPmKAXAn-36" value="" style="ellipse;whiteSpace=wrap;html=1;aspect=fixed;fillColor=#60a917;strokeColor=#2D7600;fontColor=#ffffff;" vertex="1" parent="1">
          <mxGeometry x="251" y="231" width="22" height="22" as="geometry" />
        </mxCell>
        <mxCell id="XnLmmPZK05LFaPmKAXAn-37" value="" style="ellipse;whiteSpace=wrap;html=1;aspect=fixed;fillColor=#60a917;strokeColor=#2D7600;fontColor=#ffffff;" vertex="1" parent="1">
          <mxGeometry x="309" y="286" width="22" height="22" as="geometry" />
        </mxCell>
        <mxCell id="XnLmmPZK05LFaPmKAXAn-38" value="" style="ellipse;whiteSpace=wrap;html=1;aspect=fixed;fillColor=#e3c800;strokeColor=#B09500;fontColor=#ffffff;" vertex="1" parent="1">
          <mxGeometry x="251" y="286" width="22" height="22" as="geometry" />
        </mxCell>
        <mxCell id="XnLmmPZK05LFaPmKAXAn-39" value="" style="ellipse;whiteSpace=wrap;html=1;aspect=fixed;fillColor=#e3c800;strokeColor=#B09500;fontColor=#ffffff;" vertex="1" parent="1">
          <mxGeometry x="308" y="231" width="22" height="22" as="geometry" />
        </mxCell>
        <mxCell id="XnLmmPZK05LFaPmKAXAn-40" value="" style="ellipse;whiteSpace=wrap;html=1;aspect=fixed;fillColor=#f8cecc;strokeColor=#b85450;" vertex="1" parent="1">
          <mxGeometry x="278" y="256" width="22" height="22" as="geometry" />
        </mxCell>
        <mxCell id="XnLmmPZK05LFaPmKAXAn-41" value="" style="ellipse;whiteSpace=wrap;html=1;aspect=fixed;fillColor=#60a917;strokeColor=#2D7600;fontColor=#ffffff;" vertex="1" parent="1">
          <mxGeometry x="366" y="469" width="22" height="22" as="geometry" />
        </mxCell>
        <mxCell id="XnLmmPZK05LFaPmKAXAn-42" value="" style="ellipse;whiteSpace=wrap;html=1;aspect=fixed;fillColor=#60a917;strokeColor=#2D7600;fontColor=#ffffff;" vertex="1" parent="1">
          <mxGeometry x="424" y="524" width="22" height="22" as="geometry" />
        </mxCell>
        <mxCell id="XnLmmPZK05LFaPmKAXAn-43" value="" style="ellipse;whiteSpace=wrap;html=1;aspect=fixed;fillColor=#e3c800;strokeColor=#B09500;fontColor=#ffffff;" vertex="1" parent="1">
          <mxGeometry x="366" y="524" width="22" height="22" as="geometry" />
        </mxCell>
        <mxCell id="XnLmmPZK05LFaPmKAXAn-44" value="" style="ellipse;whiteSpace=wrap;html=1;aspect=fixed;fillColor=#e3c800;strokeColor=#B09500;fontColor=#ffffff;" vertex="1" parent="1">
          <mxGeometry x="423" y="469" width="22" height="22" as="geometry" />
        </mxCell>
        <mxCell id="XnLmmPZK05LFaPmKAXAn-45" value="" style="ellipse;whiteSpace=wrap;html=1;aspect=fixed;fillColor=#f8cecc;strokeColor=#b85450;" vertex="1" parent="1">
          <mxGeometry x="393" y="494" width="22" height="22" as="geometry" />
        </mxCell>
        <mxCell id="XnLmmPZK05LFaPmKAXAn-46" value="" style="ellipse;whiteSpace=wrap;html=1;aspect=fixed;fillColor=#60a917;strokeColor=#2D7600;fontColor=#ffffff;" vertex="1" parent="1">
          <mxGeometry x="488" y="471" width="22" height="22" as="geometry" />
        </mxCell>
        <mxCell id="XnLmmPZK05LFaPmKAXAn-47" value="" style="ellipse;whiteSpace=wrap;html=1;aspect=fixed;fillColor=#60a917;strokeColor=#2D7600;fontColor=#ffffff;" vertex="1" parent="1">
          <mxGeometry x="546" y="526" width="22" height="22" as="geometry" />
        </mxCell>
        <mxCell id="XnLmmPZK05LFaPmKAXAn-48" value="" style="ellipse;whiteSpace=wrap;html=1;aspect=fixed;fillColor=#e3c800;strokeColor=#B09500;fontColor=#ffffff;" vertex="1" parent="1">
          <mxGeometry x="488" y="526" width="22" height="22" as="geometry" />
        </mxCell>
        <mxCell id="XnLmmPZK05LFaPmKAXAn-49" value="" style="ellipse;whiteSpace=wrap;html=1;aspect=fixed;fillColor=#e3c800;strokeColor=#B09500;fontColor=#ffffff;" vertex="1" parent="1">
          <mxGeometry x="545" y="471" width="22" height="22" as="geometry" />
        </mxCell>
        <mxCell id="XnLmmPZK05LFaPmKAXAn-50" value="" style="ellipse;whiteSpace=wrap;html=1;aspect=fixed;fillColor=#f8cecc;strokeColor=#b85450;" vertex="1" parent="1">
          <mxGeometry x="515" y="496" width="22" height="22" as="geometry" />
        </mxCell>
        <mxCell id="XnLmmPZK05LFaPmKAXAn-51" value="" style="ellipse;whiteSpace=wrap;html=1;aspect=fixed;fillColor=#60a917;strokeColor=#2D7600;fontColor=#ffffff;" vertex="1" parent="1">
          <mxGeometry x="251" y="470" width="22" height="22" as="geometry" />
        </mxCell>
        <mxCell id="XnLmmPZK05LFaPmKAXAn-52" value="" style="ellipse;whiteSpace=wrap;html=1;aspect=fixed;fillColor=#60a917;strokeColor=#2D7600;fontColor=#ffffff;" vertex="1" parent="1">
          <mxGeometry x="309" y="525" width="22" height="22" as="geometry" />
        </mxCell>
        <mxCell id="XnLmmPZK05LFaPmKAXAn-53" value="" style="ellipse;whiteSpace=wrap;html=1;aspect=fixed;fillColor=#e3c800;strokeColor=#B09500;fontColor=#ffffff;" vertex="1" parent="1">
          <mxGeometry x="251" y="525" width="22" height="22" as="geometry" />
        </mxCell>
        <mxCell id="XnLmmPZK05LFaPmKAXAn-54" value="" style="ellipse;whiteSpace=wrap;html=1;aspect=fixed;fillColor=#e3c800;strokeColor=#B09500;fontColor=#ffffff;" vertex="1" parent="1">
          <mxGeometry x="308" y="470" width="22" height="22" as="geometry" />
        </mxCell>
        <mxCell id="XnLmmPZK05LFaPmKAXAn-55" value="" style="ellipse;whiteSpace=wrap;html=1;aspect=fixed;fillColor=#f8cecc;strokeColor=#b85450;" vertex="1" parent="1">
          <mxGeometry x="278" y="495" width="22" height="22" as="geometry" />
        </mxCell>
      </root>
    </mxGraphModel>
  </diagram>
</mxfile>
